<svg width="12" height="18" viewBox="0 0 12 18" fill="none" xmlns="http://www.w3.org/2000/svg">
<path d="M11.0002 8.29764L2.99002 0.287559C2.80475 0.102146 2.55744 0 2.29373 0C2.03003 0 1.78271 0.102146 1.59744 0.287559L1.00755 0.87731C0.623696 1.2616 0.623696 1.88618 1.00755 2.26988L7.73393 8.99627L1.00008 15.7301C0.814816 15.9155 0.712524 16.1627 0.712524 16.4263C0.712524 16.6901 0.814816 16.9373 1.00008 17.1228L1.58998 17.7124C1.77539 17.8979 2.02256 18 2.28627 18C2.54997 18 2.79729 17.8979 2.98256 17.7124L11.0002 9.69504C11.186 9.50904 11.288 9.26071 11.2874 8.99671C11.288 8.73169 11.186 8.48349 11.0002 8.29764Z" fill="#BFBFBF"/>
</svg>
