<svg width="12" height="18" viewBox="0 0 12 18" fill="none" xmlns="http://www.w3.org/2000/svg">
<path d="M0.999721 9.70236L9.00995 17.7124C9.19522 17.8979 9.44253 18 9.70624 18C9.96994 18 10.2173 17.8979 10.4025 17.7124L10.9924 17.1227C11.3763 16.7384 11.3763 16.1138 10.9924 15.7301L4.26604 9.00373L10.9999 2.26988C11.1852 2.08447 11.2874 1.8373 11.2874 1.57374C11.2874 1.30989 11.1852 1.06272 10.9999 0.877163L10.41 0.287558C10.2246 0.102144 9.9774 1.14527e-07 9.7137 1.37581e-07C9.44999 1.60635e-07 9.20268 0.102144 9.01741 0.287558L0.999721 8.30496C0.814016 8.49096 0.712016 8.73929 0.712602 9.00329C0.712016 9.26832 0.814016 9.51651 0.999721 9.70236Z" fill="#BFBFBF"/>
</svg>
